<?xml version="1.0" encoding="UTF-8"?>
<!DOCTYPE svg PUBLIC "-//W3C//DTD SVG 1.1//EN" "http://www.w3.org/Graphics/SVG/1.1/DTD/svg11.dtd">
<!-- Creator: CorelDRAW -->
<svg xmlns="http://www.w3.org/2000/svg" xml:space="preserve" width="6.82666in" height="6.82666in" style="shape-rendering:geometricPrecision; text-rendering:geometricPrecision; image-rendering:optimizeQuality; fill-rule:evenodd; clip-rule:evenodd"
viewBox="0 0 6.82666 6.82666"
 xmlns:xlink="http://www.w3.org/1999/xlink">
 <defs>
  <style type="text/css">
   <![CDATA[
    .fil0 {fill:none}
    .fil1 {fill:#424242;fill-rule:nonzero}
    .fil2 {fill:#BA68C8;fill-rule:nonzero}
    .fil3 {fill:#CE93D8;fill-rule:nonzero}
   ]]>
  </style>
 </defs>
 <g id="Layer_x0020_1">
  <metadata id="CorelCorpID_0Corel-Layer"/>
  <g id="_488777392">
   <rect id="_488777776" class="fil0" width="6.82666" height="6.82666"/>
   <rect id="_488777800" class="fil0" x="0.853331" y="0.853331" width="5.12" height="5.12"/>
  </g>
  <path class="fil1" d="M1.75727 3.1229c-0.00656299,-0.000133858 -0.0245315,-0.00019685 0,-0.00019685l0 0.00019685z"/>
  <path class="fil1" d="M1.75727 3.12307c0.00326772,-5.90551e-005 0.00239764,-0.000122047 0,-0.000169291l0 0.000169291z"/>
  <path class="fil1" d="M0.853701 4.00241c-6.69291e-005,-0.00313386 -0.000125984,-0.00229134 -0.000173228,0l0.000173228 0z"/>
  <path class="fil2" d="M4.80129 5.08531c-0.0256575,0.202886 -0.0996811,0.36613 -0.223591,0.486795 -0.152878,0.148886 -0.37548,0.226287 -0.670193,0.226287l0 -0.000456693 -2.15023 -5.51181e-005 -0.000909449 0 -0.000885827 -7.87402e-006c-0.294142,-0.00230709 -0.518618,-0.079252 -0.672244,-0.230783 -0.154661,-0.152543 -0.231551,-0.373744 -0.229433,-0.663496l3.93701e-006 -0.000814961 3.14961e-005 -0.888268c-4.72441e-005,-0.00625197 -9.44882e-005,-0.0100354 -0.000133858,-0.0121024l-0.000173228 0c-0.000129921,0.00622047 -0.00019685,0.0230669 -0.00019685,0 0,-0.283925 0.0769803,-0.50135 0.229764,-0.651634 0.151713,-0.149232 0.372354,-0.225295 0.66076,-0.227579l0.000456693 0c0.00671654,-4.72441e-005 0.0107717,-9.05512e-005 0.0129606,-0.000133858l0 8.66142e-005 2.15023 -5.90551e-005 0 -0.000456693c0.285961,0 0.505417,0.0717953 0.658831,0.214748 0.116886,0.108917 0.191787,0.255587 0.224953,0.439732l0.949496 -0.58089 0.0557441 -0.0340709 0.176807 -0.108055 0 0.207142 0 2.23981 0 0.0626732 0 0.201791 -0.174535 -0.101346 -0.0550472 -0.0319646 -0.942465 -0.546898z"/>
  <path class="fil3" d="M3.34924 1.07063c0.0972756,-0.0282323 0.199752,-0.0423661 0.307913,-0.0423661 0.296157,0 0.560594,0.115382 0.750976,0.305764 0.189591,0.189583 0.30528,0.453039 0.30528,0.750492 0,0.298232 -0.114067,0.559118 -0.302303,0.747327 -0.189524,0.189504 -0.454106,0.304398 -0.752728,0.308402l-0.00245276 0c-0.306173,-0.0041063 -0.561,-0.124315 -0.744012,-0.307425 -0.101882,-0.101937 -0.181232,-0.223142 -0.234528,-0.354433 -0.0532008,-0.131055 -0.0805827,-0.272906 -0.0786654,-0.416382 0.00342913,-0.256012 0.100417,-0.515311 0.310839,-0.725618 0.0260591,-0.0259606 0.052626,-0.0505591 0.0795551,-0.0731457 0.0272323,-0.0228504 0.0562992,-0.0448425 0.087374,-0.0656102l0.000405512 -0.000409449c0.0841339,-0.0560591 0.174744,-0.0982638 0.272346,-0.126594z"/>
  <path class="fil2" d="M1.49169 2.92821c-0.13652,-0.13652 -0.220382,-0.324067 -0.216736,-0.537067 -0.000334646,-0.0162598 -0.000507874,-0.00483465 -0.000507874,-0.0132362l0.000409449 0c-3.93701e-006,-0.209657 0.0845709,-0.397315 0.221161,-0.533543 0.135909,-0.135563 0.323665,-0.22002 0.530886,-0.224169l0 -7.87402e-006c0.0184646,-0.000366142 0.0077874,-0.000543307 0.0155236,-0.000543307 0.216067,0 0.407528,0.0845827 0.545504,0.223331 0.13839,0.139161 0.222177,0.33211 0.222177,0.548075 0,0.104728 -0.0188425,0.202327 -0.0559724,0.292752 -0.0372953,0.0908465 -0.0926811,0.172768 -0.165567,0.245752l-0.000409449 0.000409449c-0.0745039,0.0744134 -0.15722,0.130339 -0.24761,0.168291 -0.0909528,0.038185 -0.189831,0.0580748 -0.296083,0.0601969l-0.0040748 0c-0.213157,-0.00426378 -0.408803,-0.0903622 -0.548701,-0.23024z"/>
 </g>
</svg>
